<?xml version="1.0" encoding="UTF-8"?>
<svg width="24px" height="24px" viewBox="0 0 24 24" version="1.1" xmlns="http://www.w3.org/2000/svg" xmlns:xlink="http://www.w3.org/1999/xlink">
    <!-- Generator: Sketch 52.1 (67048) - http://www.bohemiancoding.com/sketch -->
    <title>Untitled</title>
    <desc>Created with Sketch.</desc>
    <g id="Page-1" stroke="none" stroke-width="1" fill="none" fill-rule="evenodd">
        <g id="moon-outline" fill="#FFFFFF">
            <rect id="Rectangle" opacity="0" x="0" y="0" width="24" height="24"></rect>
            <path d="M12.3,22 L12.2,22 C9.42947029,21.978893 6.78402905,20.8435879 4.86,18.85 C1.20193577,14.9380931 1.08970752,8.89503349 4.6,4.85 C5.69188209,3.62634478 7.06452969,2.68608117 8.6,2.11 C8.96590963,1.96919809 9.38034469,2.05521291 9.66,2.33 C9.9184022,2.59350685 10.0106609,2.97791801 9.9,3.33 C8.78113853,6.3942383 9.53752209,9.82915539 11.84,12.14 C14.1632738,14.4347425 17.5987857,15.1895435 20.67,14.08 C21.0356306,13.9512955 21.4427053,14.0454827 21.7146456,14.3217055 C21.9865859,14.5979283 22.0744014,15.0064249 21.94,15.37 C21.4291615,16.7337158 20.6311341,17.9716814 19.6,19 C17.662755,20.9314623 15.0355695,22.0111275 12.3,22 Z M7.46,4.92 C6.95767483,5.27229828 6.49793273,5.68170365 6.09,6.14 C3.24060969,9.40510575 3.32704927,14.2975858 6.29,17.46 C7.8426522,19.0725831 9.98146798,19.9887032 12.22,20 L12.3,20 C14.9906562,19.9984609 17.5152901,18.6989075 19.08,16.51 C15.8948504,16.9227195 12.6982254,15.8362763 10.4242222,13.568144 C8.1502189,11.3000116 7.05551582,8.10620586 7.46,4.92 Z" id="Shape" fill-rule="nonzero"></path>
        </g>
    </g>
</svg>